<?xml version="1.0" encoding="UTF-8" standalone="no"?>
<!-- Created with Inkscape (http://www.inkscape.org/) -->

<svg
   version="1.1"
   id="svg2"
   width="666.66669"
   height="666.66669"
   viewBox="0 0 666.66669 666.66669"
   sodipodi:docname="7533462.eps"
   xmlns:inkscape="http://www.inkscape.org/namespaces/inkscape"
   xmlns:sodipodi="http://sodipodi.sourceforge.net/DTD/sodipodi-0.dtd"
   xmlns="http://www.w3.org/2000/svg"
   xmlns:svg="http://www.w3.org/2000/svg">
  <defs
     id="defs6">
    <clipPath
       clipPathUnits="userSpaceOnUse"
       id="clipPath26">
      <path
         d="m 2341.5,2237.26 c -7.82,-10.4 -16.38,-20.35 -25.86,-29.73 l -246.49,-246.49 c -52.09,-52.1 -120.48,-81.92 -193.65,-84.77 -3.87,-0.19 -7.73,-0.28 -11.69,-0.28 -77.59,0 -150.49,30.19 -205.35,85.05 l -97.56,97.56 c 32.49,61.86 73.82,130.33 122.78,202.95 l 137.7,-137.6 c 5.52,-5.52 11.87,-9.75 18.68,-12.61 7.46,-3.31 15.56,-4.97 23.56,-4.97 0.1,0 0.1,0 0.19,0 1.38,0 2.67,0.09 4.05,0.19 0.92,0.09 1.84,0.18 2.76,0.27 1.75,0.28 3.4,0.55 4.97,0.83 0.74,0.19 1.47,0.28 2.12,0.46 0.46,0.09 0.92,0.19 1.28,0.28 0.93,0.18 1.94,0.46 2.86,0.83 0.37,0.09 0.64,0.18 0.92,0.27 0.55,0.19 0.92,0.28 0.92,0.28 0.37,0.18 0.83,0.27 1.2,0.46 1.01,0.37 1.93,0.73 2.85,1.19 1.1,0.47 2.21,0.93 3.31,1.57 0.65,0.28 1.38,0.64 2.03,1.1 1.19,0.65 2.39,1.29 3.59,2.12 3.4,2.21 6.62,4.79 9.57,7.73 l 246.49,246.49 c 2.39,2.39 4.51,4.97 6.26,7.64 l 49.24,-7.64 z"
         id="path24" />
    </clipPath>
    <linearGradient
       x1="0"
       y1="0"
       x2="1"
       y2="0"
       gradientUnits="userSpaceOnUse"
       gradientTransform="matrix(-201.184,-258.665,-258.665,201.184,2060.05,2310.39)"
       spreadMethod="pad"
       id="linearGradient34">
      <stop
         style="stop-opacity:1;stop-color:#4223ed"
         offset="0"
         id="stop28" />
      <stop
         style="stop-opacity:1;stop-color:#825ef6"
         offset="0.994413"
         id="stop30" />
      <stop
         style="stop-opacity:1;stop-color:#825ef6"
         offset="1"
         id="stop32" />
    </linearGradient>
    <clipPath
       clipPathUnits="userSpaceOnUse"
       id="clipPath48">
      <path
         d="m 3136.28,2719.37 c -15.37,0 -30.74,-5.8 -42.43,-17.58 l -116.34,-116.34 c -8.47,11.41 -17.95,22.46 -28.35,32.86 l -132.35,132.35 114.13,114.04 c 54.86,54.86 127.75,85.14 205.34,85.14 35.99,0 71.06,-6.53 103.73,-19.14 112.57,-110.36 -103.73,-211.33 -103.73,-211.33 z"
         id="path46" />
    </clipPath>
    <linearGradient
       x1="0"
       y1="0"
       x2="1"
       y2="0"
       gradientUnits="userSpaceOnUse"
       gradientTransform="matrix(-100.774,-105.573,-105.573,100.774,3025.63,2769.2)"
       spreadMethod="pad"
       id="linearGradient56">
      <stop
         style="stop-opacity:1;stop-color:#42d3d8"
         offset="0"
         id="stop50" />
      <stop
         style="stop-opacity:1;stop-color:#11afb7"
         offset="0.994413"
         id="stop52" />
      <stop
         style="stop-opacity:1;stop-color:#11afb7"
         offset="1"
         id="stop54" />
    </linearGradient>
  </defs>
  <sodipodi:namedview
     id="namedview4"
     pagecolor="#ffffff"
     bordercolor="#000000"
     borderopacity="0.25"
     inkscape:showpageshadow="2"
     inkscape:pageopacity="0.0"
     inkscape:pagecheckerboard="0"
     inkscape:deskcolor="#d1d1d1" />
  <g
     id="g8"
     inkscape:groupmode="layer"
     inkscape:label="ink_ext_XXXXXX"
     transform="matrix(1.3333333,0,0,-1.3333333,0,666.66667)">
    <g
       id="g10"
       transform="scale(0.1)">
      <path
         d="M 5000,5000 V 0 H 0 v 5000 h 5000"
         style="fill:#ffffff;fill-opacity:1;fill-rule:nonzero;stroke:none"
         id="path12" />
      <path
         d="m 2482.2,3503.53 c -137.56,0 -249.48,-111.92 -249.48,-249.48 0,-137.56 111.92,-249.48 249.48,-249.48 137.56,0 249.48,111.92 249.48,249.48 0,137.56 -111.92,249.48 -249.48,249.48 z m 0,-120.97 c 70.97,0 128.51,-57.54 128.51,-128.51 0,-70.97 -57.54,-128.51 -128.51,-128.51 -70.97,0 -128.51,57.54 -128.51,128.51 0,70.97 57.54,128.51 128.51,128.51 v 0"
         style="fill:#3c32a3;fill-opacity:1;fill-rule:nonzero;stroke:none"
         id="path14" />
      <path
         d="m 1941.7,3193.78 c -23.64,-44.4 -72.6,-73.32 -127.54,-67.48 -62.22,6.6 -111.44,59.16 -114.32,121.66 -3.4,73.73 55.37,134.57 128.35,134.57 38.4,0 72.88,-16.86 96.42,-43.61 16.16,-18.37 41.63,-25.42 64.48,-16.67 1.98,0.76 3.96,1.52 5.94,2.28 36.62,14.03 49.14,60.16 23.86,90.14 -51.65,61.28 -132.23,97.42 -220.39,87.16 -114.04,-13.26 -205.58,-105.31 -218.26,-219.42 -16.68,-150.14 100.99,-277.8 247.95,-277.8 95.41,0 178.5,53.85 220.4,132.78 20.79,39.18 -8.67,86.41 -53.02,86.75 -0.44,0.01 -0.87,0.01 -1.31,0.01 -21.74,0.17 -42.34,-11.18 -52.56,-30.37"
         style="fill:#825ef6;fill-opacity:1;fill-rule:nonzero;stroke:none"
         id="path16" />
      <path
         d="m 2152.73,2370.44 -246.49,-246.49 c -2.95,-2.94 -6.17,-5.52 -9.57,-7.73 -1.2,-0.83 -2.4,-1.47 -3.59,-2.12 -0.65,-0.46 -1.38,-0.82 -2.03,-1.1 -1.1,-0.64 -2.21,-1.1 -3.31,-1.57 -0.92,-0.46 -1.84,-0.82 -2.85,-1.19 -0.37,-0.19 -0.83,-0.28 -1.2,-0.46 0,0 -0.37,-0.09 -0.92,-0.28 -0.28,-0.09 -0.55,-0.18 -0.92,-0.27 -0.92,-0.37 -1.93,-0.65 -2.86,-0.83 -0.36,-0.09 -0.82,-0.19 -1.28,-0.28 -0.65,-0.18 -1.38,-0.27 -2.12,-0.46 -1.66,-0.46 -3.31,-0.74 -4.97,-0.83 -0.92,-0.09 -1.84,-0.18 -2.76,-0.27 -1.38,-0.1 -2.67,-0.19 -4.05,-0.19 -0.09,0 -0.09,0 -0.19,0 -8,0 -16.1,1.66 -23.56,4.97 -6.81,2.86 -13.16,7.09 -18.68,12.61 l -137.7,137.6 -108.88,108.89 c -23.38,23.47 -23.38,61.48 0,84.86 l 246.58,246.58 c 11.69,11.69 27.06,17.58 42.43,17.58 15.37,0 30.65,-5.89 42.43,-17.58 l 246.49,-246.58 c 21.07,-20.98 23.19,-53.75 6.26,-77.22 -1.75,-2.67 -3.87,-5.25 -6.26,-7.64 z m 162.91,247.78 -246.49,246.58 c -54.85,54.85 -127.84,85.04 -205.34,85.04 -77.59,0 -150.49,-30.19 -205.35,-85.04 l -246.58,-246.58 c -113.21,-113.22 -113.21,-297.48 0,-410.69 l 149.02,-148.93 97.56,-97.56 c 54.86,-54.86 127.76,-85.05 205.35,-85.05 3.96,0 7.82,0.09 11.69,0.28 73.17,2.85 141.56,32.67 193.65,84.77 l 246.49,246.49 c 9.48,9.38 18.04,19.33 25.86,29.73 86.52,113.67 77.87,277.13 -25.86,380.96"
         style="fill:#825ef6;fill-opacity:1;fill-rule:nonzero;stroke:none"
         id="path18" />
      <g
         id="g20">
        <g
           id="g22"
           clip-path="url(#clipPath26)">
          <path
             d="m 2341.5,2237.26 c -7.82,-10.4 -16.38,-20.35 -25.86,-29.73 l -246.49,-246.49 c -52.09,-52.1 -120.48,-81.92 -193.65,-84.77 -3.87,-0.19 -7.73,-0.28 -11.69,-0.28 -77.59,0 -150.49,30.19 -205.35,85.05 l -97.56,97.56 c 32.49,61.86 73.82,130.33 122.78,202.95 l 137.7,-137.6 c 5.52,-5.52 11.87,-9.75 18.68,-12.61 7.46,-3.31 15.56,-4.97 23.56,-4.97 0.1,0 0.1,0 0.19,0 1.38,0 2.67,0.09 4.05,0.19 0.92,0.09 1.84,0.18 2.76,0.27 1.75,0.28 3.4,0.55 4.97,0.83 0.74,0.19 1.47,0.28 2.12,0.46 0.46,0.09 0.92,0.19 1.28,0.28 0.93,0.18 1.94,0.46 2.86,0.83 0.37,0.09 0.64,0.18 0.92,0.27 0.55,0.19 0.92,0.28 0.92,0.28 0.37,0.18 0.83,0.27 1.2,0.46 1.01,0.37 1.93,0.73 2.85,1.19 1.1,0.47 2.21,0.93 3.31,1.57 0.65,0.28 1.38,0.64 2.03,1.1 1.19,0.65 2.39,1.29 3.59,2.12 3.4,2.21 6.62,4.79 9.57,7.73 l 246.49,246.49 c 2.39,2.39 4.51,4.97 6.26,7.64 l 49.24,-7.64 133.27,-133.18"
             style="fill:url(#linearGradient34);fill-opacity:1;fill-rule:nonzero;stroke:none"
             id="path36" />
        </g>
      </g>
      <path
         d="m 2949.15,2618.27 -246.57,246.48 c -54.86,54.85 -127.75,85.08 -205.34,85.08 -77.59,0 -150.49,-30.23 -205.34,-85.08 l -111.34,-111.42 135.06,-135.06 c 9.48,-9.38 18.05,-19.31 25.9,-29.68 l 113.31,113.22 c 11.73,11.73 27.07,17.59 42.41,17.59 15.33,0 30.76,-5.86 42.49,-17.59 l 246.48,-246.48 c 23.46,-23.46 23.46,-61.44 0,-84.9 l -246.48,-246.48 c -11.73,-11.73 -27.16,-17.59 -42.49,-17.59 -15.34,0 -30.68,5.86 -42.41,17.59 l -113.22,113.23 c -0.09,0 -0.09,0.09 -0.09,0.09 l -133.26,133.16 c -12.09,12.18 -17.95,28.24 -17.41,44.12 -10.65,11.28 -21.47,22.56 -32.03,33.56 -1.8,2.53 -3.88,4.96 -6.13,7.22 l -30.5,30.4 c -1.08,1.09 -2.16,2.26 -3.25,3.34 -55.66,56.66 -99.42,99.52 -99.42,99.52 h -0.09 c -38.34,-50.26 -59.09,-111.43 -59.09,-175.66 0,-64.33 20.75,-125.41 59.18,-175.66 7.85,-10.38 16.51,-20.3 25.89,-29.69 l 184.32,-184.31 62.17,-62.26 c 54.85,-54.85 127.75,-85.07 205.34,-85.07 77.59,0 150.48,30.22 205.34,85.07 l 246.57,246.57 c 113.23,113.23 113.23,297.46 0,410.69"
         style="fill:#3c32a3;fill-opacity:1;fill-rule:nonzero;stroke:none"
         id="path38" />
      <path
         d="m 3588.12,2618.31 -246.49,246.39 c -29.36,29.37 -63.88,51.73 -101.62,66 -32.67,12.61 -67.74,19.14 -103.73,19.14 -77.59,0 -150.48,-30.28 -205.34,-85.14 l -114.13,-114.04 132.35,-132.35 c 10.4,-10.4 19.88,-21.45 28.35,-32.86 l 116.34,116.34 c 11.69,11.78 27.06,17.58 42.43,17.58 15.28,0 30.65,-5.8 42.44,-17.58 L 3425.2,2455.3 c 23.38,-23.47 23.38,-61.39 0,-84.86 l -246.48,-246.49 c -11.79,-11.69 -27.16,-17.58 -42.44,-17.58 -15.37,0 -30.74,5.89 -42.43,17.58 l -104.46,104.38 c 0,0.09 -0.1,0.09 -0.1,0.18 l -11.87,11.78 -130.15,130.15 c -10.67,10.77 -16.56,24.57 -17.39,38.47 -12.34,12.98 -24.76,25.78 -36.91,38.2 -1.84,2.85 -4.14,5.62 -6.72,8.19 l -62.13,62.04 -11.6,11.69 -10.86,10.86 c -20.61,20.8 -35.98,36.08 -42.34,42.25 l -3.22,3.31 h -0.09 c -75.47,-102.17 -75.38,-242.99 0.09,-345.16 8.47,-11.41 17.86,-22.36 28.26,-32.67 l 132.45,-132.45 55.41,-55.41 58.72,-58.72 c 54.86,-54.86 127.75,-85.14 205.34,-85.14 77.6,0 150.49,30.28 205.35,85.14 l 246.49,246.58 c 113.21,113.21 113.21,297.38 0,410.69"
         style="fill:#42d3d8;fill-opacity:1;fill-rule:nonzero;stroke:none"
         id="path40" />
      <g
         id="g42">
        <g
           id="g44"
           clip-path="url(#clipPath48)">
          <path
             d="m 3136.28,2719.37 c -15.37,0 -30.74,-5.8 -42.43,-17.58 l -116.34,-116.34 c -8.47,11.41 -17.95,22.46 -28.35,32.86 l -132.35,132.35 114.13,114.04 c 54.86,54.86 127.75,85.14 205.34,85.14 35.99,0 71.06,-6.53 103.73,-19.14 112.57,-110.36 -103.73,-211.33 -103.73,-211.33"
             style="fill:url(#linearGradient56);fill-opacity:1;fill-rule:nonzero;stroke:none"
             id="path58" />
        </g>
      </g>
      <path
         d="m 3022.66,3314.35 c 23.64,44.4 72.6,73.32 127.54,67.49 62.22,-6.61 111.44,-59.16 114.32,-121.67 3.4,-73.73 -55.37,-134.56 -128.35,-134.56 -38.4,0 -72.88,16.86 -96.41,43.61 -16.17,18.37 -41.64,25.42 -64.49,16.66 -1.98,-0.76 -3.96,-1.52 -5.94,-2.27 -36.62,-14.03 -49.14,-60.16 -23.86,-90.15 51.65,-61.28 132.23,-97.42 220.39,-87.16 114.04,13.27 205.59,105.32 218.26,219.42 16.68,150.15 -100.99,277.81 -247.95,277.81 -95.41,0 -178.49,-53.86 -220.4,-132.79 -20.79,-39.17 8.68,-86.4 53.03,-86.75 0.43,0 0.86,0 1.3,-0.01 21.74,-0.17 42.34,11.18 52.56,30.37"
         style="fill:#42d3d8;fill-opacity:1;fill-rule:nonzero;stroke:none"
         id="path60" />
      <path
         d="M 5000,104.801 V 0 H 0 v 104.801 h 5000"
         style="fill:#825ef6;fill-opacity:1;fill-rule:nonzero;stroke:none"
         id="path62" />
      <path
         d="M 5000,104.801 V 0 H 3571.6 l 171.8,104.801 H 5000"
         style="fill:#42d3d8;fill-opacity:1;fill-rule:nonzero;stroke:none"
         id="path64" />
      <path
         d="M 3813.5,104.801 C 3754,69.8984 3694.4,34.8984 3634.9,0 H 1862.7 l 171.8,104.801 h 1779"
         style="fill:#3c32a3;fill-opacity:1;fill-rule:nonzero;stroke:none"
         id="path66" />
      <g
         id="g68"
         transform="scale(10)">
        <text
           xml:space="preserve"
           transform="matrix(1,0,0,-1,139.667,132.552)"
           style="font-variant:normal;font-weight:normal;font-size:39.9112px;font-family:FredokaOne;-inkscape-font-specification:FredokaOne-Regular;writing-mode:lr-tb;fill:#301c7b;fill-opacity:1;fill-rule:nonzero;stroke:none"
           id="text72"><tspan
             x="0 33.405273 66.571243 84.810539 118.25533 154.97363 189.41704"
             y="0"
             sodipodi:role="line"
             id="tspan70">FRIENDS</tspan></text>
      </g>
      <g
         id="g74"
         transform="scale(10)">
        <text
           xml:space="preserve"
           transform="matrix(1,0,0,-1,190.237,99.9148)"
           style="font-variant:normal;font-weight:300;font-size:11.0888px;font-family:Poppins;-inkscape-font-specification:Poppins-Light;writing-mode:lr-tb;fill:#04004f;fill-opacity:1;fill-rule:nonzero;stroke:none"
           id="text78"><tspan
             x="0 10.623004 19.748987 32.95599 46.062397 57.639492 69.615112 76.933472 88.865074 98.82309 109.56718"
             y="0"
             sodipodi:role="line"
             id="tspan76">SLOGAN HERE</tspan></text>
      </g>
    </g>
  </g>
</svg>
