<?xml version="1.0" encoding="utf-8"?>
<!-- Generator: Adobe Illustrator 17.0.0, SVG Export Plug-In . SVG Version: 6.00 Build 0)  -->
<!DOCTYPE svg PUBLIC "-//W3C//DTD SVG 1.1//EN" "http://www.w3.org/Graphics/SVG/1.1/DTD/svg11.dtd">
<svg version="1.1" id="Layer_1" xmlns="http://www.w3.org/2000/svg" xmlns:xlink="http://www.w3.org/1999/xlink" x="0px" y="0px"
	 width="528.995px" height="183.704px" viewBox="0 0 528.995 183.704" enable-background="new 0 0 528.995 183.704"
	 xml:space="preserve">
<g>
	<path fill="#EA3226" d="M118.087,133.66c1.535,0,2.39-0.001,3.244,0c20.513,0.031,41.026,0.143,61.539,0.065
		c13.776-0.052,27.591,0.207,41.316-0.735c14.029-0.963,26.306-6.972,35.429-17.773c17.277-20.456,19.945-43.707,9.645-67.859
		c-8.031-18.83-23.233-29.537-43.922-30.754c-14.277-0.84-28.629-0.422-42.947-0.54c-0.706-0.006-1.415,0.246-2.499,0.448
		c3.859,6.388,7.48,12.527,11.309,18.533c0.464,0.728,2.045,1.028,3.113,1.04c7.704,0.087,15.41,0.015,23.115,0.06
		c6.62,0.039,12.99,1.407,18.685,4.801c12.37,7.372,17.917,18.825,18.292,32.817c0.613,22.868-15.509,39.293-38.336,39.341
		c-16.931,0.036-33.862-0.12-50.792-0.075c-10.954,0.029-21.909,0.227-32.86,0.474c-1.112,0.025-2.701,0.604-3.227,1.449
		C125.482,120.914,121.994,127.013,118.087,133.66z M277.273,84.389c-0.752,2.968-1.179,5.757-2.184,8.32
		c-1.071,2.731-0.048,3.807,2.315,4.891c8.368,3.838,16.609,7.956,25.004,11.734c1.461,0.658,3.668,0.746,5.136,0.142
		c32.274-13.282,64.491-26.703,96.723-40.086c5.363-2.227,10.75-4.395,16.248-6.641c2.103,4.005,6.904,10.57,7.095,10.204
		c5.169-9.896,10.405-19.758,15.444-29.721c1.325-2.62,2.815-4.138,5.943-3.579c2.626,0.469,4.466-0.694,5.946-2.978
		c2.043-3.152,4.427-6.082,6.638-9.071c0.5,0.283,0.744,0.345,0.864,0.501c1.915,2.495,3.812,5.003,5.718,7.505
		c3.028,3.975,4.734,3.773,6.797-0.758c1.771-3.888,3.59-7.754,5.696-12.294c0.767,2.126,1.258,3.435,1.712,4.756
		c3.134,9.117,6.197,18.26,9.469,27.327c0.418,1.159,1.921,1.927,2.921,2.875c0.882-1.074,2.246-2.02,2.572-3.243
		c3.322-12.454,6.471-24.953,9.686-37.436c0.177-0.688,0.511-1.337,0.946-2.448c0.432,1.173,0.727,1.852,0.933,2.556
		c1.857,6.341,3.61,12.714,5.621,19.005c0.391,1.223,1.696,2.943,2.71,3.037c3.846,0.359,7.746,0.145,11.768,0.145
		c0-1.559,0-2.806,0-4.427c-2.496,0-4.867-0.141-7.213,0.041c-2.234,0.173-3.208-0.598-3.809-2.83
		c-2.253-8.367-4.662-16.695-7.247-24.965c-0.423-1.353-1.865-3.066-3.112-3.335c-2.331-0.503-2.456,1.875-2.874,3.507
		c-2.502,9.76-4.975,19.527-7.471,29.288c-0.873,3.414-1.783,6.818-2.837,10.841c-0.577-1.147-0.918-1.676-1.12-2.253
		c-1.718-4.907-3.422-9.818-5.107-14.736c-1.51-4.408-2.891-8.865-4.561-13.211c-0.383-0.996-1.642-2.11-2.64-2.266
		c-0.768-0.121-2.034,0.999-2.591,1.877c-1.036,1.633-1.711,3.494-2.546,5.255c-1.509,3.186-3.024,6.368-4.717,9.93
		c-2.303-3.03-4.272-5.606-6.226-8.195c-2.51-3.326-3.714-3.366-6.142-0.106c-2.139,2.871-4.325,5.714-6.309,8.689
		c-1.332,1.998-2.852,3.083-5.361,2.717c-8.786-1.284-17.589-2.45-26.374-3.733c-5.481-0.8-10.944-1.73-17.062-2.704
		c2.092,4.308,3.826,7.88,5.677,11.691c-1.631,0.942-3.08,1.853-4.593,2.641c-32.297,16.823-64.616,33.605-96.875,50.501
		c-2.36,1.236-4.232,1.311-6.671,0.312C293.401,90.466,285.475,87.541,277.273,84.389z M152.998,43.146
		c7.628,12.752,14.771,24.693,22.007,36.787c6.155-3.686,11.951-7.158,17.78-10.649c-0.483-0.93-0.707-1.422-0.984-1.882
		c-9.22-15.32-18.417-30.654-27.707-45.933c-1.109-1.824-2.554-3.529-4.139-4.963c-4.004-3.623-8.684-3.749-12.507,0.047
		c-2.498,2.48-4.552,5.508-6.383,8.545c-19.463,32.297-38.846,64.642-58.238,96.982c-2.236,3.73-4.399,7.503-6.842,11.676
		c6.012,0,11.342-0.299,16.621,0.087c4.883,0.357,7.788-1.52,10.208-5.691c12.346-21.274,24.909-42.423,37.416-63.604
		C144.297,57.661,148.424,50.809,152.998,43.146z M353.436,66.394c-0.074-0.255-0.148-0.51-0.222-0.766c-1.166,0-2.332,0-3.499,0
		c-12.26-0.001-24.521,0.115-36.779-0.036c-11.271-0.139-18.485-11.546-13.719-21.685c3.008-6.399,8.46-8.829,15.377-8.807
		c24.519,0.076,49.039,0.034,73.559,0.037c1.35,0,2.7,0,4.028,0c0-6.704,0-12.839,0-19.238c-1.264,0-2.327,0-3.39,0
		c-25.171-0.002-50.341-0.009-75.512-0.005c-14.768,0.003-27.829,8.826-32.628,22.018c-5.25,14.431-1.346,29.3,10.327,39.121
		c5.106,4.295,11.036,6.751,17.633,7.678c6.011,0.844,11.579-0.111,16.694-3.57c1.873-1.267,4.011-2.141,6.028-3.194
		C338.701,74.095,346.068,70.245,353.436,66.394z M372.467,85.658c1.401,0.786,2.165,1.192,2.908,1.634
		c8.822,5.252,9.996,17.727,2.305,24.484c-3.369,2.96-7.356,3.869-11.758,3.862c-31.376-0.05-62.752-0.011-94.127-0.062
		c-2.001-0.003-3.21,0.625-4.628,2.141c-3.613,3.862-7.482,7.531-11.569,10.888c-2.855,2.345-6.237,4.048-9.757,6.273
		c0.888,0.068,1.298,0.127,1.707,0.127c40.061,0.004,80.123,0.055,120.183-0.041c8.027-0.019,15.29-2.629,21.658-7.695
		c15.365-12.224,17.242-36.894,3.582-50.107C386.379,79.894,379.711,82.657,372.467,85.658z M250.361,84.579
		c0.452-2.661,0.768-4.779,1.179-6.878c0.477-2.431-0.42-3.628-2.825-4.52c-10.764-3.992-21.418-8.279-32.18-12.277
		c-1.28-0.476-3.263-0.327-4.435,0.36c-20.097,11.777-40.12,23.681-60.152,35.569c-2.432,1.443-4.824,2.955-7.234,4.435
		c1.365,0.085,2.467-0.296,3.502-0.811c19.89-9.884,39.838-19.654,59.608-29.774c4.653-2.382,8.639-3.314,13.173-0.123
		c2.008,1.414,4.465,2.191,6.716,3.26C235.039,77.3,242.364,80.78,250.361,84.579z M490.203,171.954
		c-0.232,0.079-0.465,0.157-0.697,0.236c-2.665-4.044-5.364-8.066-7.985-12.137c-2.532-3.933-4.04-4.47-8.77-2.951
		c0,8.645,0,17.269,0,25.956c2.148,0,4.039,0,6.287,0c0-5.126,0-10.043,0-14.959c3.363,3.636,5.939,7.555,8.572,11.435
		c2.978,4.388,3.394,4.521,8.835,3.264c0-8.614,0-17.249,0-26.024c-2.135,0-4.098,0-6.242,0
		C490.203,162.007,490.203,166.981,490.203,171.954z M119.092,168.019c0.27-0.091,0.541-0.182,0.811-0.274
		c2.551,3.85,5.111,7.694,7.651,11.551c2.985,4.533,3.237,4.645,8.82,3.551c0-8.67,0-17.37,0-26.113c-2.059,0-3.846,0-6.142,0
		c0,5.151,0,10.105,0,15.059c-3.318-3.742-5.839-7.638-8.427-11.49c-2.894-4.307-3.532-4.522-8.722-3.333c0,8.714,0,17.421,0,26.118
		c2.117,0,3.917,0,6.009,0C119.092,177.943,119.092,172.981,119.092,168.019z M214.143,164.68c-1.086-4.978-4.486-7.702-10.18-8.507
		c-6.343-0.897-12.591,2.455-14.632,7.85c-2.515,6.647-0.448,13.996,4.887,17.373c5.416,3.429,13.332,2.535,17.749-1.903
		c2.681-2.693,3.462-5.937,2.984-9.541c-0.08-0.6-0.943-1.55-1.469-1.566c-4.087-0.131-8.18-0.072-12.319-0.072
		c0,1.712,0,3.027,0,4.406c2.664,0.182,5.044,0.344,7.636,0.521c-2.111,4.306-6.234,5.641-10.083,3.719
		c-3.635-1.815-5.052-7.399-2.902-11.432c1.72-3.226,6.563-4.785,9.553-2.439C208.16,165.278,210.925,164.782,214.143,164.68z
		 M468.648,169.812c0.01-8.071-5.614-13.781-13.612-13.822c-8.071-0.041-14.034,5.889-13.982,13.906
		c0.051,7.862,5.691,13.49,13.563,13.532C463.054,183.473,468.639,178.054,468.648,169.812z M344.723,183.427
		c8.113-0.009,13.711-5.592,13.707-13.67c-0.004-7.984-5.745-13.74-13.729-13.765c-7.867-0.025-13.931,5.865-14.035,13.631
		C330.561,177.521,336.584,183.436,344.723,183.427z M150.168,183.442c4.977-0.229,9.552-0.092,14.015-0.733
		c5.593-0.804,9.266-5.365,9.924-11.354c0.644-5.863-2.327-11.581-7.365-13.628c-5.407-2.197-11.016-0.987-16.574-1.007
		C150.168,165.696,150.168,174.236,150.168,183.442z M32.429,156.575c0,9.147,0,17.847,0,26.408c2.189,0,4.076,0,6.426,0
		c0-3.439,0-6.59,0-9.741c0.377-0.122,0.754-0.244,1.131-0.365c1.106,1.984,2.224,3.962,3.316,5.953
		c2.703,4.93,3.346,5.219,9.476,3.968c-1.871-3.331-3.694-6.576-5.553-9.884c0.604-0.391,0.955-0.625,1.313-0.849
		c3.521-2.2,5.08-5.461,4.302-9.003c-0.85-3.869-3.578-6.251-7.905-6.447C40.84,156.429,36.73,156.575,32.429,156.575z
		 M80.592,182.994c-3.047-3.867-5.729-7.497-8.666-10.906c-1.592-1.848-1.532-3.2,0-5.002c2.77-3.257,5.345-6.679,8.128-10.191
		c-4.68-1.023-8.216-0.546-10.586,3.75c-1.327,2.406-3.313,4.448-5.003,6.654c-0.249-0.056-0.498-0.111-0.748-0.167
		c0-3.469,0-6.938,0-10.434c-2.435,0-4.346,0-6.417,0c0,8.896,0,17.608,0,26.338c2.242,0,4.234,0,6.575,0c0-3.652,0-7.068,0-11.467
		c2.091,2.743,3.838,4.544,5.004,6.666C71.373,182.769,75.045,184.179,80.592,182.994z M210.589,98.727
		c-3.996-6.657-7.721-12.917-11.551-19.113c-0.238-0.385-1.447-0.573-1.95-0.328c-5.713,2.779-11.376,5.66-17.371,8.674
		c2.02,3.225,3.816,6.285,5.836,9.19c0.536,0.771,1.752,1.493,2.668,1.509C195.421,98.781,202.625,98.727,210.589,98.727z
		 M278.262,183.048c-3.135-8.722-5.9-17.027-9.269-25.08c-0.467-1.116-3.908-1.242-5.99-1.31c-0.895-0.029-2.299,1.072-2.671,1.986
		c-1.836,4.502-3.412,9.111-5.065,13.688c-1.236,3.422-2.448,6.852-3.676,10.292c4.935,1.376,5.789,1.032,7.761-2.533
		c0.341-0.617,1.175-1.306,1.822-1.35c2.373-0.161,4.766-0.128,7.145-0.019c0.632,0.029,1.703,0.502,1.787,0.926
		C271.058,184.459,274.54,183.231,278.262,183.048z M109.265,183.287c-0.233-1.015-0.312-1.656-0.527-2.249
		c-2.537-7.013-5.214-13.979-7.586-21.048c-0.892-2.659-2.098-3.623-5.028-3.612c-3.127,0.012-4.872,0.847-5.388,3.98
		c-0.138,0.836-0.602,1.616-0.895,2.43c-2.412,6.689-4.819,13.38-7.379,20.492c1.708,0,3.036,0.235,4.228-0.067
		c1.148-0.291,2.846-0.935,3.092-1.777c0.693-2.373,1.999-3.032,4.252-2.809c1.502,0.149,3.041,0.146,4.544,0.004
		c1.822-0.173,2.94,0.456,3.225,2.287c0.319,2.05,1.588,2.564,3.46,2.39C106.435,183.198,107.627,183.287,109.265,183.287z
		 M28.912,183.277c-3.044-8.431-5.92-16.239-8.661-24.095c-0.719-2.06-1.853-2.569-4.008-2.785
		c-3.903-0.392-5.743,1.048-6.428,4.792c-0.345,1.887-1.337,3.651-1.995,5.485c-1.929,5.378-3.837,10.764-6.035,16.935
		c2.889-1.213,6.159,1.703,7.424-2.284c0.704-2.218,1.785-2.932,3.95-2.698c1.395,0.151,2.832,0.151,4.227,0.003
		c2.139-0.228,3.4,0.382,4.059,2.634c0.251,0.858,1.666,1.672,2.695,1.932C25.453,183.528,26.912,183.277,28.912,183.277z
		 M402.82,156.748c-1.903,0-3.789,0-5.977,0c0,5.193,0.086,10.162-0.027,15.128c-0.091,3.955-1.836,5.741-5.15,5.658
		c-3.203-0.08-4.53-1.713-4.556-5.75c-0.033-4.96-0.008-9.919-0.008-14.987c-2.319,0-4.28,0-6.421,0
		c0,5.258-0.002,10.237,0.002,15.216c0.001,0.759-0.018,1.522,0.057,2.275c0.527,5.322,4.041,8.755,9.298,9.117
		c7.028,0.483,12.046-2.203,12.637-7.854C403.318,169.378,402.82,163.084,402.82,156.748z M327.319,163.861
		c-0.192-1.11-0.205-1.771-0.424-2.355c-1.851-4.93-8.928-7.047-14.828-4.522c-3.042,1.302-4.575,3.653-4.652,6.83
		c-0.075,3.075,1.347,5.451,4.266,6.675c2.194,0.92,4.537,1.515,6.649,2.581c1.015,0.512,1.851,1.685,2.353,2.754
		c0.2,0.425-0.633,1.899-1.15,1.987c-1.294,0.22-3.449,0.425-3.894-0.255c-2.261-3.459-5.298-1.682-8.132-2.002
		c0.953,6.411,7.217,9.596,14.165,7.52c3.473-1.038,5.885-3.864,6.154-7.21c0.247-3.08-1.459-5.66-4.998-7.233
		c-2.173-0.966-4.602-1.454-6.594-2.68c-0.882-0.543-0.965-2.382-1.41-3.633c1.439-0.155,3.767-0.935,4.169-0.362
		C321.244,165.159,324.221,163.47,327.319,163.861z M520.789,163.788c-0.176-1.051-0.192-1.598-0.363-2.092
		c-1.734-5.009-8.462-7.171-14.709-4.804c-2.975,1.127-4.491,3.23-4.698,6.367c-0.213,3.227,0.806,5.81,3.923,7.142
		c2.284,0.976,4.731,1.596,6.944,2.699c1.005,0.501,1.816,1.698,2.307,2.766c0.19,0.413-0.665,1.85-1.195,1.94
		c-1.296,0.221-3.422,0.445-3.9-0.244c-2.187-3.155-5.106-1.849-8.066-2.018c0.02,3.367,1.491,6.02,4.331,6.695
		c3.344,0.795,7.051,0.974,10.439,0.423c3.383-0.55,5.106-3.442,5.305-6.946c0.19-3.34-1.452-5.582-4.436-6.858
		c-2.284-0.977-4.662-1.737-6.93-2.746c-1.691-0.753-2.854-2.303-1.346-3.789c0.791-0.779,3.644-0.951,4.11-0.321
		C514.816,165.128,517.725,163.524,520.789,163.788z M229.075,156.751c-0.737,4.823-0.73,5.007,3.778,4.842
		c2.747-0.1,3.265,1.014,3.187,3.412c-0.145,4.432-0.043,8.871-0.044,13.307c-0.001,5.335,0.055,5.39,5.468,4.815
		c0.291-0.031,0.559-0.273,1.114-0.56c0-6.786,0-13.672,0-20.97c2.097,0,4.176,0.541,5.625-0.181
		c1.051-0.524,1.266-2.723,2.053-4.666C242.602,156.751,235.947,156.751,229.075,156.751z M420.112,183.138
		c0-7.266,0-14.25,0-21.544c2.582,0,4.707,0,6.968,0c0-1.802,0-3.275,0-4.855c-6.809,0-13.472,0-20.225,0c0,1.684,0,3.135,0,4.755
		c2.328,0.104,4.443,0.199,6.994,0.314c0,7.236,0,14.222,0,21.33C415.998,183.138,417.698,183.138,420.112,183.138z
		 M362.496,156.722c0,8.936,0,17.538,0,26.315c5.001,0,9.788,0,14.582,0c0-1.678,0-3.107,0-4.853c-2.836,0-5.387,0-8.265,0
		c0-7.293,0-14.271,0-21.462C366.587,156.722,364.701,156.722,362.496,156.722z M288.099,178.353c0-7.481,0-14.472,0-21.525
		c-2.34,0-4.308,0-6.496,0c0,8.296,0.03,16.306-0.022,24.315c-0.012,1.817,0.916,2.156,2.442,2.131
		c3.251-0.053,6.505-0.069,9.755,0.003c1.755,0.039,2.856-0.225,2.85-2.423c-0.005-2.106-0.932-2.614-2.772-2.52
		C292.134,178.422,290.405,178.353,288.099,178.353z M225.339,156.754c-2.476,0-4.376,0-6.526,0c0,8.194,0.036,16.186-0.023,24.178
		c-0.016,2.223,1.276,2.457,2.952,2.301c1.467-0.136,3.572,0.71,3.584-1.961C225.363,173.184,225.339,165.095,225.339,156.754z
		 M431.101,156.662c0,9.022,0,17.73,0,26.329c2.185,0,4.071,0,5.917,0c0-8.923,0-17.555,0-26.329
		C434.97,156.662,433.149,156.662,431.101,156.662z M178.032,156.679c0,8.253,0.092,16.134-0.051,24.011
		c-0.049,2.712,1.474,2.578,3.313,2.585c1.865,0.007,3.355,0.073,3.297-2.616c-0.151-6.922-0.042-13.849-0.057-20.775
		c-0.002-1.039-0.113-2.077-0.179-3.206C182.177,156.679,180.365,156.679,178.032,156.679z"/>
	<path fill="#50276A" d="M118.087,133.66c3.907-6.648,7.396-12.746,11.104-18.708c0.526-0.846,2.115-1.424,3.227-1.449
		c10.952-0.247,21.906-0.444,32.86-0.474c16.93-0.045,33.861,0.111,50.792,0.075c22.826-0.048,38.949-16.474,38.336-39.341
		c-0.375-13.992-5.923-25.445-18.292-32.817c-5.695-3.394-12.065-4.762-18.685-4.801c-7.705-0.045-15.411,0.027-23.115-0.06
		c-1.069-0.012-2.649-0.313-3.113-1.04c-3.829-6.006-7.45-12.144-11.309-18.533c1.084-0.202,1.793-0.454,2.499-0.448
		c14.318,0.117,28.67-0.3,42.947,0.54c20.689,1.217,35.892,11.923,43.922,30.754c10.3,24.152,7.632,47.403-9.645,67.859
		c-9.122,10.801-21.4,16.81-35.429,17.773c-13.725,0.942-27.54,0.683-41.316,0.735c-20.513,0.078-41.026-0.034-61.539-0.065
		C120.476,133.659,119.622,133.66,118.087,133.66z"/>
	<path fill="#50276A" d="M447.113,34.955c2.51,0.367,4.029-0.718,5.361-2.717c1.984-2.976,4.17-5.819,6.309-8.689
		c2.429-3.26,3.632-3.22,6.142,0.106c1.954,2.589,3.923,5.166,6.226,8.195c1.692-3.562,3.208-6.745,4.717-9.93
		c0.834-1.762,1.51-3.622,2.546-5.255c0.557-0.878,1.823-1.998,2.591-1.877c0.998,0.157,2.258,1.271,2.64,2.266
		c1.67,4.346,3.05,8.803,4.561,13.211c1.685,4.918,3.389,9.829,5.107,14.736c0.202,0.577,0.544,1.106,1.12,2.253
		c1.054-4.024,1.964-7.428,2.837-10.841c2.496-9.761,4.968-19.529,7.471-29.288c0.418-1.631,0.543-4.009,2.874-3.507
		c1.247,0.269,2.689,1.982,3.112,3.335c2.584,8.27,4.993,16.599,7.247,24.965c0.601,2.231,1.575,3.002,3.809,2.83
		c2.346-0.181,4.717-0.041,7.213-0.041c0,1.621,0,2.868,0,4.427c-4.022,0-7.922,0.214-11.768-0.145
		c-1.014-0.095-2.319-1.814-2.71-3.037c-2.011-6.291-3.764-12.665-5.621-19.005c-0.206-0.704-0.501-1.382-0.933-2.556
		c-0.435,1.112-0.768,1.76-0.946,2.448c-3.215,12.482-6.364,24.982-9.686,37.436c-0.326,1.223-1.69,2.168-2.572,3.243
		c-1-0.949-2.503-1.716-2.921-2.875c-3.273-9.067-6.335-18.21-9.469-27.327c-0.454-1.321-0.945-2.63-1.712-4.756
		c-2.106,4.54-3.925,8.406-5.696,12.294c-2.064,4.531-3.769,4.733-6.797,0.758c-1.906-2.502-3.803-5.01-5.718-7.505
		c-0.12-0.156-0.364-0.218-0.864-0.501c-2.211,2.989-4.595,5.92-6.638,9.071c-1.48,2.284-3.319,3.447-5.946,2.978
		C445.869,39.095,438.327,33.671,447.113,34.955z"/>
	<path fill="#EA3226" d="M445.17,39.248c0.781-1.35,0.84-2.904,0.902-4.44c-8.44-1.225-16.895-2.353-25.334-3.585
		c-5.481-0.8-10.944-1.73-17.062-2.704c2.092,4.308,3.826,7.88,5.677,11.691c-1.631,0.942-3.08,1.853-4.593,2.641
		c-32.297,16.823-64.616,33.604-96.875,50.501c-2.36,1.236-4.232,1.311-6.671,0.312c-7.814-3.199-15.74-6.123-23.943-9.276
		c-0.752,2.968-1.179,5.757-2.185,8.32c-1.071,2.731-0.048,3.807,2.315,4.891c8.368,3.839,16.609,7.956,25.004,11.734
		c1.461,0.658,3.668,0.746,5.136,0.142c32.274-13.282,64.491-26.703,96.723-40.086c5.363-2.227,10.75-4.395,16.248-6.641
		c2.103,4.005,4.034,7.682,6.13,11.675c0.512-0.775,0.773-1.105,0.965-1.471c5.169-9.896,10.405-19.758,15.444-29.721
		c0.493-0.974,1.009-1.794,1.622-2.413C444.707,40.315,444.86,39.786,445.17,39.248z"/>
	<path fill="#50276A" d="M152.998,43.146c-4.574,7.663-8.701,14.515-12.767,21.401c-12.507,21.181-25.07,42.33-37.416,63.604
		c-2.421,4.171-5.325,6.049-10.208,5.691c-5.28-0.386-10.61-0.087-16.621-0.087c2.442-4.173,4.605-7.946,6.842-11.676
		c19.393-32.339,38.775-64.685,58.238-96.982c1.83-3.037,3.884-6.065,6.383-8.545c3.824-3.795,8.503-3.67,12.507-0.047
		c1.585,1.434,3.029,3.139,4.139,4.963c9.289,15.278,18.487,30.612,27.707,45.933c0.277,0.46,0.5,0.953,0.984,1.882
		c-5.828,3.491-11.625,6.963-17.78,10.649C167.769,67.839,160.626,55.898,152.998,43.146z"/>
	<path fill="#50276A" d="M353.436,66.394c-7.368,3.851-14.735,7.701-22.103,11.552c-2.017,1.054-4.155,1.928-6.028,3.194
		c-5.115,3.459-10.683,4.415-16.694,3.57c-6.597-0.927-12.528-3.383-17.633-7.678c-11.673-9.82-15.577-24.689-10.327-39.121
		c4.799-13.192,17.86-22.016,32.628-22.018c25.171-0.005,50.341,0.003,75.512,0.005c1.063,0,2.126,0,3.39,0
		c0,6.399,0,12.534,0,19.238c-1.328,0-2.678,0-4.028,0c-24.52-0.003-49.039,0.039-73.559-0.037
		c-6.917-0.021-12.37,2.408-15.377,8.807c-4.766,10.14,2.448,21.547,13.719,21.685c12.258,0.151,24.519,0.035,36.779,0.036
		c1.166,0,2.332,0,3.499,0C353.288,65.884,353.362,66.139,353.436,66.394z"/>
	<path fill="#50286C" d="M372.467,85.658c7.244-3.002,13.912-5.764,20.504-8.496c13.661,13.213,11.783,37.883-3.582,50.107
		c-6.368,5.066-13.631,7.676-21.658,7.695c-40.061,0.096-80.122,0.045-120.183,0.041c-0.409,0-0.819-0.059-1.707-0.127
		c3.52-2.225,6.902-3.928,9.757-6.273c4.086-3.357,7.955-7.026,11.569-10.888c1.418-1.516,2.627-2.145,4.628-2.141
		c31.376,0.052,62.752,0.012,94.127,0.062c4.402,0.007,8.39-0.902,11.758-3.862c7.691-6.757,6.517-19.233-2.305-24.484
		C374.632,86.85,373.869,86.444,372.467,85.658z"/>
	<path fill="#E93226" d="M250.361,84.579c-7.997-3.799-15.321-7.28-22.647-10.759c-2.251-1.069-4.708-1.846-6.716-3.26
		c-4.534-3.192-8.52-2.259-13.173,0.123c-19.769,10.119-39.718,19.89-59.608,29.774c-1.035,0.514-2.136,0.896-3.502,0.811
		c2.41-1.48,4.802-2.992,7.234-4.435c20.032-11.888,40.055-23.792,60.152-35.569c1.172-0.687,3.154-0.835,4.435-0.36
		c10.762,3.998,21.416,8.285,32.18,12.277c2.405,0.892,3.302,2.089,2.825,4.52C251.128,79.8,250.812,81.918,250.361,84.579z"/>
	<path fill="#50276A" d="M490.203,171.954c0-4.973,0-9.946,0-15.181c2.144,0,4.108,0,6.242,0c0,8.775,0,17.41,0,26.024
		c-5.441,1.256-5.858,1.123-8.835-3.264c-2.633-3.88-5.209-7.799-8.572-11.435c0,4.917,0,9.833,0,14.959c-2.248,0-4.139,0-6.287,0
		c0-8.687,0-17.311,0-25.956c4.729-1.519,6.237-0.982,8.77,2.951c2.622,4.072,5.32,8.094,7.985,12.137
		C489.738,172.111,489.97,172.033,490.203,171.954z"/>
	<path fill="#50276A" d="M119.092,168.019c0,4.962,0,9.924,0,15.069c-2.092,0-3.892,0-6.009,0c0-8.697,0-17.404,0-26.118
		c5.19-1.189,5.827-0.974,8.722,3.333c2.588,3.851,5.109,7.748,8.427,11.49c0-4.954,0-9.907,0-15.059c2.297,0,4.083,0,6.142,0
		c0,8.743,0,17.443,0,26.113c-5.583,1.094-5.835,0.981-8.82-3.551c-2.54-3.857-5.1-7.701-7.651-11.551
		C119.633,167.837,119.362,167.928,119.092,168.019z"/>
	<path fill="#EA3226" d="M214.143,164.68c-3.218,0.102-5.984,0.598-8.775-1.592c-2.99-2.346-7.833-0.787-9.553,2.439
		c-2.15,4.034-0.733,9.617,2.902,11.432c3.849,1.922,7.972,0.587,10.083-3.719c-2.591-0.177-4.972-0.339-7.636-0.521
		c0-1.379,0-2.695,0-4.406c4.139,0,8.232-0.059,12.319,0.072c0.526,0.017,1.39,0.966,1.469,1.566
		c0.478,3.603-0.303,6.847-2.984,9.541c-4.418,4.438-12.333,5.332-17.749,1.903c-5.335-3.377-7.402-10.725-4.887-17.373
		c2.041-5.395,8.288-8.747,14.632-7.85C209.658,156.979,213.057,159.702,214.143,164.68z"/>
	<path fill="#50276A" d="M468.648,169.812c-0.01,8.242-5.594,13.661-14.031,13.615c-7.872-0.042-13.513-5.67-13.563-13.532
		c-0.051-8.017,5.911-13.947,13.982-13.906C463.034,156.031,468.658,161.742,468.648,169.812z M462.141,169.657
		c-0.034-4.628-2.98-7.822-7.244-7.854c-4.342-0.033-7.239,3.293-7.156,8.214c0.081,4.801,2.797,7.588,7.347,7.54
		C459.415,177.511,462.176,174.419,462.141,169.657z"/>
	<path fill="#50276A" d="M344.723,183.427c-8.139,0.009-14.162-5.906-14.057-13.804c0.104-7.767,6.167-13.656,14.035-13.631
		c7.984,0.025,13.725,5.781,13.729,13.765C358.434,177.836,352.836,183.419,344.723,183.427z M337.585,169.831
		c0.028,5.03,2.478,7.711,7.066,7.728c4.484,0.017,7.274-3.09,7.234-8.053c-0.037-4.568-3.144-7.81-7.381-7.704
		C340.117,161.911,337.557,164.881,337.585,169.831z"/>
	<path fill="#EA3226" d="M150.168,183.442c0-9.206,0-17.746,0-26.723c5.558,0.021,11.167-1.19,16.574,1.007
		c5.039,2.047,8.01,7.765,7.365,13.628c-0.658,5.989-4.331,10.551-9.924,11.354C159.72,183.35,155.144,183.213,150.168,183.442z
		 M156.438,177.512c2.029,0,3.441,0.087,4.838-0.018c2.741-0.207,4.767-1.601,5.624-4.218c1.065-3.249,1.253-6.901-1.523-9.061
		c-1.992-1.551-5.133-1.661-7.798-2.254c-0.249-0.056-1.079,1.033-1.09,1.601C156.397,168.086,156.438,172.615,156.438,177.512z"/>
	<path fill="#50276A" d="M32.429,156.575c4.301,0,8.412-0.146,12.507,0.04c4.327,0.196,7.055,2.578,7.905,6.447
		c0.779,3.542-0.781,6.803-4.302,9.003c-0.358,0.223-0.708,0.458-1.313,0.849c1.858,3.308,3.681,6.553,5.553,9.884
		c-6.131,1.252-6.774,0.962-9.476-3.968c-1.092-1.992-2.21-3.969-3.316-5.953c-0.377,0.122-0.754,0.244-1.131,0.365
		c0,3.151,0,6.302,0,9.741c-2.35,0-4.237,0-6.426,0C32.429,174.422,32.429,165.722,32.429,156.575z M38.806,169.183
		c2.649-0.834,4.958-1.315,6.968-2.366c0.511-0.267,0.493-3.205-0.002-3.448c-2.045-1.003-4.366-1.442-6.966-2.198
		C38.806,164.146,38.806,166.144,38.806,169.183z"/>
	<path fill="#50276A" d="M80.592,182.994c-5.547,1.186-9.219-0.224-11.712-4.759c-1.166-2.121-2.913-3.923-5.004-6.666
		c0,4.399,0,7.815,0,11.467c-2.341,0-4.333,0-6.575,0c0-8.73,0-17.441,0-26.338c2.071,0,3.982,0,6.417,0c0,3.496,0,6.965,0,10.434
		c0.249,0.056,0.498,0.111,0.748,0.167c1.689-2.206,3.675-4.249,5.003-6.654c2.37-4.296,5.906-4.773,10.586-3.75
		c-2.783,3.512-5.358,6.934-8.128,10.191c-1.532,1.801-1.592,3.154,0,5.002C74.863,175.497,77.545,179.127,80.592,182.994z"/>
	<path fill="#50286C" d="M210.589,98.727c-7.964,0-15.168,0.055-22.368-0.068c-0.916-0.016-2.132-0.738-2.668-1.509
		c-2.02-2.905-3.816-5.965-5.836-9.19c5.995-3.014,11.658-5.895,17.371-8.674c0.503-0.245,1.712-0.057,1.95,0.328
		C202.867,85.809,206.593,92.07,210.589,98.727z"/>
	<path fill="#EA3226" d="M278.262,183.048c-3.722,0.183-7.203,1.41-8.155-3.401c-0.084-0.424-1.155-0.897-1.787-0.926
		c-2.379-0.109-4.772-0.142-7.145,0.019c-0.647,0.044-1.481,0.732-1.822,1.35c-1.971,3.565-2.826,3.91-7.761,2.533
		c1.228-3.44,2.441-6.87,3.676-10.292c1.653-4.577,3.228-9.185,5.065-13.688c0.373-0.914,1.777-2.015,2.671-1.986
		c2.081,0.068,5.523,0.194,5.99,1.31C272.362,166.021,275.127,174.326,278.262,183.048z M261.626,173.37c2.405,0,4.167,0,6.486,0
		c-1.059-3.124-1.979-5.841-2.9-8.557c-0.302,0.032-0.604,0.065-0.905,0.097C263.448,167.618,262.59,170.326,261.626,173.37z"/>
	<path fill="#50276A" d="M109.265,183.287c-1.639,0-2.83-0.089-4.003,0.02c-1.872,0.174-3.141-0.34-3.46-2.39
		c-0.285-1.831-1.403-2.46-3.225-2.287c-1.503,0.143-3.042,0.145-4.544-0.004c-2.253-0.223-3.559,0.436-4.252,2.809
		c-0.246,0.842-1.944,1.486-3.092,1.777c-1.192,0.302-2.52,0.067-4.228,0.067c2.56-7.113,4.967-13.803,7.379-20.492
		c0.293-0.813,0.757-1.593,0.895-2.43c0.516-3.133,2.261-3.968,5.388-3.98c2.93-0.011,4.135,0.953,5.028,3.612
		c2.372,7.068,5.048,14.034,7.586,21.048C108.953,181.631,109.032,182.272,109.265,183.287z M92.698,173.442
		c2.352,0,4.234,0,6.518,0c-1.028-3.176-1.955-6.041-2.882-8.906c-0.269,0.034-0.539,0.068-0.808,0.101
		C94.623,167.447,93.72,170.257,92.698,173.442z"/>
	<path fill="#50276A" d="M28.912,183.277c-2,0-3.459,0.251-4.772-0.08c-1.029-0.26-2.443-1.074-2.695-1.932
		c-0.66-2.252-1.921-2.862-4.059-2.634c-1.395,0.149-2.832,0.148-4.227-0.003c-2.164-0.235-3.246,0.48-3.95,2.698
		c-1.266,3.987-4.536,1.071-7.424,2.284c2.197-6.172,4.106-11.557,6.035-16.935c0.658-1.834,1.65-3.599,1.995-5.485
		c0.684-3.744,2.524-5.184,6.428-4.792c2.155,0.216,3.29,0.725,4.008,2.785C22.992,167.038,25.868,174.846,28.912,183.277z
		 M15.806,164.739c-0.287-0.051-0.573-0.103-0.86-0.154c-0.918,2.899-1.836,5.798-2.812,8.881c2.536,0,4.335,0,6.485,0
		C17.626,170.386,16.716,167.563,15.806,164.739z"/>
	<path fill="#50276A" d="M402.82,156.748c0,6.336,0.499,12.629-0.147,18.803c-0.591,5.651-5.609,8.337-12.637,7.854
		c-5.257-0.362-8.77-3.795-9.298-9.117c-0.075-0.753-0.056-1.517-0.057-2.275c-0.004-4.979-0.002-9.957-0.002-15.216
		c2.141,0,4.102,0,6.421,0c0,5.067-0.025,10.027,0.008,14.987c0.027,4.037,1.354,5.669,4.556,5.75
		c3.314,0.083,5.06-1.703,5.15-5.658c0.114-4.965,0.027-9.935,0.027-15.128C399.031,156.748,400.917,156.748,402.82,156.748z"/>
	<path fill="#50276A" d="M327.319,163.861c-3.099-0.39-6.076,1.298-8.326-1.906c-0.402-0.573-2.73,0.207-4.169,0.362
		c0.446,1.251,0.529,3.09,1.41,3.633c1.992,1.226,4.421,1.715,6.594,2.68c3.539,1.573,5.246,4.154,4.998,7.233
		c-0.269,3.346-2.681,6.173-6.154,7.21c-6.949,2.076-13.213-1.108-14.165-7.52c2.835,0.319,5.871-1.457,8.132,2.002
		c0.445,0.681,2.6,0.476,3.894,0.255c0.517-0.088,1.35-1.562,1.15-1.987c-0.502-1.069-1.338-2.241-2.353-2.754
		c-2.112-1.066-4.456-1.661-6.649-2.581c-2.92-1.224-4.341-3.6-4.266-6.675c0.077-3.177,1.61-5.529,4.652-6.83
		c5.9-2.525,12.977-0.408,14.828,4.522C327.114,162.089,327.127,162.751,327.319,163.861z"/>
	<path fill="#50276A" d="M520.789,163.788c-3.065-0.264-5.974,1.34-8.284-1.786c-0.466-0.63-3.319-0.458-4.11,0.321
		c-1.508,1.486-0.345,3.036,1.346,3.789c2.268,1.009,4.646,1.77,6.93,2.746c2.984,1.276,4.625,3.518,4.436,6.858
		c-0.199,3.504-1.922,6.396-5.305,6.946c-3.388,0.551-7.094,0.372-10.439-0.423c-2.841-0.675-4.311-3.328-4.331-6.695
		c2.96,0.169,5.879-1.137,8.066,2.018c0.478,0.689,2.604,0.465,3.9,0.244c0.529-0.09,1.384-1.528,1.195-1.94
		c-0.491-1.069-1.302-2.265-2.307-2.766c-2.212-1.103-4.66-1.723-6.944-2.699c-3.118-1.333-4.136-3.915-3.923-7.142
		c0.207-3.137,1.724-5.241,4.698-6.367c6.247-2.366,12.975-0.205,14.709,4.804C520.598,162.189,520.613,162.737,520.789,163.788z"/>
	<path fill="#EA3226" d="M229.075,156.751c6.872,0,13.526,0,21.18,0c-0.787,1.943-1.002,4.142-2.053,4.666
		c-1.449,0.723-3.529,0.181-5.625,0.181c0,7.299,0,14.185,0,20.97c-0.555,0.286-0.823,0.529-1.114,0.56
		c-5.412,0.574-5.469,0.519-5.468-4.815c0.001-4.436-0.101-8.876,0.044-13.307c0.079-2.399-0.44-3.513-3.187-3.412
		C228.346,161.758,228.339,161.574,229.075,156.751z"/>
	<path fill="#50276A" d="M420.112,183.138c-2.414,0-4.114,0-6.264,0c0-7.108,0-14.094,0-21.33c-2.55-0.114-4.666-0.209-6.994-0.314
		c0-1.62,0-3.071,0-4.755c6.754,0,13.416,0,20.225,0c0,1.58,0,3.053,0,4.855c-2.261,0-4.386,0-6.968,0
		C420.112,168.888,420.112,175.872,420.112,183.138z"/>
	<path fill="#50276A" d="M362.496,156.722c2.205,0,4.091,0,6.316,0c0,7.191,0,14.169,0,21.462c2.879,0,5.429,0,8.265,0
		c0,1.746,0,3.175,0,4.853c-4.793,0-9.581,0-14.582,0C362.496,174.26,362.496,165.658,362.496,156.722z"/>
	<path fill="#EA3226" d="M288.099,178.353c2.306,0,4.035,0.069,5.757-0.019c1.841-0.094,2.767,0.414,2.772,2.52
		c0.006,2.198-1.095,2.462-2.85,2.423c-3.25-0.072-6.504-0.055-9.755-0.003c-1.527,0.025-2.454-0.314-2.442-2.131
		c0.052-8.01,0.022-16.02,0.022-24.315c2.188,0,4.156,0,6.496,0C288.099,163.881,288.099,170.872,288.099,178.353z"/>
	<path fill="#EA3226" d="M225.339,156.754c0,8.341,0.023,16.43-0.013,24.519c-0.012,2.671-2.117,1.825-3.584,1.961
		c-1.677,0.156-2.969-0.079-2.952-2.301c0.059-7.992,0.023-15.985,0.023-24.178C220.964,156.754,222.863,156.754,225.339,156.754z"
		/>
	<path fill="#50276A" d="M431.101,156.662c2.048,0,3.869,0,5.917,0c0,8.773,0,17.406,0,26.329c-1.847,0-3.732,0-5.917,0
		C431.101,174.392,431.101,165.684,431.101,156.662z"/>
	<path fill="#EA3226" d="M178.032,156.679c2.333,0,4.146,0,6.323,0c0.066,1.129,0.177,2.167,0.179,3.206
		c0.015,6.925-0.094,13.853,0.057,20.775c0.059,2.689-1.432,2.623-3.297,2.616c-1.839-0.007-3.362,0.127-3.313-2.585
		C178.124,172.814,178.032,164.933,178.032,156.679z"/>
	<path fill="#FFFFFF" d="M462.141,169.657c0.035,4.761-2.726,7.854-7.053,7.9c-4.55,0.049-7.267-2.739-7.347-7.54
		c-0.083-4.921,2.814-8.247,7.156-8.214C459.161,161.835,462.107,165.029,462.141,169.657z"/>
	<path fill="#FFFFFF" d="M337.585,169.831c-0.027-4.949,2.532-7.92,6.918-8.029c4.237-0.106,7.344,3.136,7.381,7.704
		c0.041,4.963-2.75,8.07-7.234,8.053C340.063,177.542,337.612,174.861,337.585,169.831z"/>
	<path fill="#FFFFFF" d="M156.438,177.512c0-4.897-0.041-9.426,0.051-13.952c0.012-0.568,0.841-1.656,1.09-1.601
		c2.664,0.593,5.805,0.704,7.798,2.254c2.776,2.161,2.587,5.812,1.523,9.061c-0.857,2.617-2.883,4.012-5.624,4.218
		C159.879,177.599,158.467,177.512,156.438,177.512z"/>
	<path fill="#FFFFFF" d="M38.806,169.183c0-3.039,0-5.037,0-8.012c2.6,0.757,4.921,1.196,6.966,2.198
		c0.495,0.243,0.513,3.181,0.002,3.448C43.764,167.868,41.455,168.348,38.806,169.183z"/>
	<path fill="#FFFFFF" d="M261.626,173.37c0.964-3.044,1.822-5.752,2.681-8.46c0.302-0.032,0.604-0.065,0.905-0.097
		c0.92,2.716,1.841,5.433,2.9,8.557C265.793,173.37,264.031,173.37,261.626,173.37z"/>
	<path fill="#FFFFFF" d="M92.698,173.442c1.023-3.185,1.925-5.995,2.828-8.805c0.269-0.034,0.539-0.068,0.808-0.101
		c0.927,2.865,1.854,5.73,2.882,8.906C96.931,173.442,95.049,173.442,92.698,173.442z"/>
	<path fill="#FFFFFF" d="M15.806,164.739c0.91,2.823,1.82,5.647,2.813,8.728c-2.15,0-3.95,0-6.485,0
		c0.976-3.084,1.894-5.983,2.812-8.881C15.233,164.637,15.52,164.688,15.806,164.739z"/>
</g>
</svg>
